<?xml version="1.0" encoding="UTF-8"?>
<svg id="Layer_2" data-name="Layer 2" xmlns="http://www.w3.org/2000/svg" viewBox="0 0 1652.56 945.78">
  <defs>
    <style>
      .cls-1 {
        fill: #262626;
      }

      .cls-1, .cls-2, .cls-3, .cls-4, .cls-5, .cls-6, .cls-7 {
        stroke-width: 0px;
      }

      .cls-2, .cls-4, .cls-6 {
        fill-rule: evenodd;
      }

      .cls-2, .cls-7 {
        fill: #e8b221;
      }

      .cls-3 {
        fill: none;
      }

      .cls-4 {
        fill: #2f4b9d;
      }

      .cls-5, .cls-6 {
        fill: #2f499d;
      }
    </style>
  </defs>
  <g id="Layer_1-2" data-name="Layer 1">
    <g>
      <g>
        <path class="cls-2" d="m1265.79,326.13c.45-.79.88-1.76,1.52-2.58,1.22-2.01,2.82-3.86,4.43-5.73,3.23-3.55,7.28-6.45,12.4-8.21,32.49-10.95,62.95,11.33,77.73,24.73,3.15,3.09,12.94,13.45,9.95,10.15,0,0,3.28-3.19,8.73-8.11l211.63,234.75,60.4-55.01-211.44-234.77c5.76-5.34,9.59-8.59,9.57-8.77.92-1.41-154.24-155.69,55.08-173.49,45.47-3.02,39.77-18.87-1.5-24.85-74.43-10.42-155.5,12.42-234.92,84.4-115.41,107.49-88.65,97.83-9.79,185.02.4-2.63,1.16-5.3,1.93-7.98.41-1.15.97-2.52,1.51-4.05.86-1.96,1.74-3.72,2.8-5.52h0Zm-4.57,24.89l-82.2-91.74-14.56,12.9h0c-6.58,6.18-7.1,16.56-1.08,23.34l60.65,67.05c6.2,6.76,16.58,7.27,23.16,1.1h0l14.05-12.65Z"/>
        <path class="cls-6" d="m0,540.55L528.27,0l502.87,526.81c-60.69,1.79-120.77,6.74-177.94,12.82l-5.69.61-333.3-343.4-327.59,348.73-42.83,45.59c-49.32-10.81-99.78-26.43-142.37-49.82l-1.42-.79Z"/>
        <path class="cls-3" d="m0,540.55L528.27,0l502.87,526.81c-60.69,1.79-120.77,6.74-177.94,12.82l-5.69.61-333.3-343.4-327.59,348.73-42.83,45.59c-49.32-10.81-99.78-26.43-142.37-49.82l-1.42-.79Z"/>
        <path class="cls-2" d="m808.88,255.81l140.07-143.33,420.38,440.39,17.44,18.27c-60.62-21.62-126.32-34.05-193.84-40.18l-255.05-263.45-58.44,62.21-70.56-73.92Z"/>
        <path class="cls-7" d="m808.88,255.81l140.07-143.33,420.38,440.39,17.44,18.27c-60.62-21.62-126.32-34.05-193.84-40.18l-255.05-263.45-58.44,62.21-70.56-73.92Z"/>
        <path class="cls-4" d="m444.23,394h63.14v63.14h-63.14v-63.14Zm0,91.2h63.14v63.14h-63.14v-63.14Zm91.2,0h63.14v63.14h-63.14v-63.14Zm0-91.2h63.14v63.14h-63.14v-63.14Z"/>
      </g>
      <g>
        <g>
          <path class="cls-1" d="m67.01,656.6c12.94.17,22.06.25,27.38.25,6.64,0,15.47-.08,26.5-.25l-3.7,52.92c-.74,9.96-1.3,19.3-1.67,28.01-.37,8.72-.56,14.73-.56,18.05,0,6.31.46,11.58,1.36,15.81.91,4.23,2.57,7.82,4.98,10.77,2.4,2.95,5.74,5.17,10.01,6.66,4.27,1.49,8.73,2.24,13.37,2.24,3.98,0,7.71-.54,11.2-1.63,2.74-.89,5.18-2.13,7.34-3.71,1.9-1.48,3.56-3.21,4.98-5.19,1.74-2.37,3.28-5.34,4.6-8.9,1.33-3.36,2.32-7.71,2.99-13.05.75-5.43,1.74-17.79,2.99-37.06,1.08-16.41,1.91-31.43,2.5-45.07.5-13.24.95-19.86,1.37-19.86h54.9l-6.05,88.4c-.08,1.66-.12,3.03-.12,4.11-.33,17.27-1.39,29.45-3.18,36.54-1.78,7.1-4.75,13.26-8.9,18.49-4.15,5.23-10.21,9.94-18.18,14.13-7.97,4.19-17.02,7.16-27.15,8.9-10.13,1.74-20.38,2.61-30.76,2.61-9.3,0-18.27-.66-26.9-1.99-7.97-1.33-15.15-3.26-21.55-5.79-6.39-2.53-11.96-5.5-16.69-8.9-4.32-3.15-7.64-6.37-9.97-9.65-2.32-3.28-4.15-7.2-5.48-11.77-1.49-5.15-2.24-10.67-2.24-16.56,0-1.99.08-5,.25-9.03s.54-9.82,1.13-17.37l1.63-19.92c.42-5.23.87-12.91,1.37-23.03l2.25-49.18Z"/>
          <path class="cls-1" d="m256.48,826.55c2.09-19.59,3.58-35.57,4.5-47.94,1.75-22.58,3.06-45.01,3.94-67.3.88-22.29,1.31-40.53,1.31-54.72,11.28.17,21.28.25,29.99.25,5.89,0,14.35-.08,25.38-.25l-3,45.07-3.75,70.47-.5,17.31c14.28.25,23.58.37,27.9.37,21.84,0,38.36-.29,49.57-.87l-2.74,37.6c-21.83-.17-42.62-.25-62.38-.25-26.73,0-50.14.08-70.22.25Z"/>
          <path class="cls-1" d="m444.99,826.55c4.12-40.34,6.6-84.75,7.42-133.22l-52.99,1.37.62-13.82c.33-7.39.58-15.48.75-24.28,23.56.17,51.03.25,82.4.25l30.74-.12h29.88l16.18-.12-.75,12.2c-.33,6.54-.56,11.95-.68,16.22-.12,4.27-.19,7.5-.19,9.68-17.75-.91-32.39-1.37-43.91-1.37h-8.71c-1.26,14.67-2.22,28.21-2.88,40.64-.92,17.81-1.63,35.11-2.13,51.88-.5,16.78-.75,30.35-.75,40.7-13.61-.17-22.4-.25-26.38-.25-3.57,0-13.1.08-28.62.25Z"/>
          <path class="cls-1" d="m568.75,826.55c1.58-14.61,2.83-27.77,3.75-39.47.91-11.7,1.71-25.28,2.37-40.71.67-15.44,1.17-31.73,1.5-48.87.33-17.14.5-30.77.5-40.9,10.38.25,18.76.37,25.15.37s14.73-.19,24.27-.56c9.55-.37,18.84-.56,27.88-.56,10.62,0,20.09.42,28.39,1.25,6.22.58,11.89,1.78,16.99,3.61,5.1,1.83,9.4,4.05,12.88,6.66s6.39,5.54,8.72,8.78c2.32,3.24,4.13,7.03,5.42,11.39,1.29,4.36,1.93,9.03,1.93,14.01,0,5.56-.71,10.77-2.12,15.63-1.41,4.86-3.63,9.42-6.66,13.7-3.03,4.27-6.85,7.97-11.45,11.08-4.61,3.11-11.06,6.29-19.36,9.52l6.47,15.81c1.83,4.4,3.78,8.88,5.85,13.45l16.68,36.48c.75,1.58,2.08,4.69,3.98,9.34-13.69-.17-22.89-.25-27.62-.25-5.98,0-15.76.08-29.36.25-1.33-4.32-3.74-12.33-7.23-24.03-1.41-4.9-2.62-8.67-3.62-11.33-2-5.89-4.94-14.15-8.85-24.78l-12.84-35.24c4.48.83,8.88,1.25,13.2,1.25,6.06,0,11.56-.91,16.5-2.74,4.94-1.83,8.67-4.65,11.21-8.47,2.53-3.82,3.8-7.84,3.8-12.08,0-3.57-.95-6.7-2.86-9.4-1.91-2.7-4.92-4.71-9.03-6.04-4.11-1.33-10.44-1.99-18.99-1.99-2.91,0-5.91.06-9.03.19-3.11.12-6.74.23-10.89.31-1.06,17.02-2.01,37.77-2.82,62.25-.82,24.49-1.35,48.52-1.6,72.09-13.88-.17-22.89-.25-27.05-.25-4.82,0-13.5.08-26.05.25Z"/>
          <path class="cls-1" d="m725.38,826.55l10.34-17.93,64.41-121.27,6.85-13.57c1.99-3.98,4.77-9.71,8.35-17.18,14.6.17,25.27.25,31.99.25,11.7,0,22.54-.08,32.5-.25l18.16,51.92,36.96,99.86,7.22,18.18c-14.38-.17-23.1-.25-26.17-.25-6.98,0-17.24.08-30.79.25-3.64-13.7-8.91-29.8-15.78-48.31h-62.68c-7.22,14.61-14.68,30.71-22.39,48.31-15.45-.17-24.93-.25-28.42-.25-6.31,0-16.49.08-30.54.25Zm96.4-84.54h38.67c-9.61-29.25-14.87-45.37-15.78-48.35-5.48,12.18-10.12,22.17-13.93,29.95l-8.95,18.4Z"/>
        </g>
        <g>
          <path class="cls-1" d="m1142.7,727.44c11.37.17,22.2.25,32.5.25,17.6,0,31.38-.08,41.34-.25-1.08,11.37-2.17,27.47-3.29,48.31-1.12,20.83-1.81,36.56-2.05,47.19-9.55,1.74-17.45,3.01-23.72,3.8s-13.8,1.49-22.6,2.12c-8.8.62-16.65.93-23.53.93-11.29,0-22.38-.91-33.25-2.74-10.88-1.83-20.61-4.77-29.2-8.84-8.59-4.07-15.75-9.59-21.48-16.56-5.73-6.97-10.15-15.23-13.26-24.78-3.11-9.55-4.67-19.42-4.67-29.63,0-16.85,4.19-32.5,12.58-46.94,8.38-14.44,20.44-25.88,36.17-34.3,15.73-8.43,36.05-12.64,60.95-12.64,18.18,0,38.31,2.2,60.39,6.6,0,12.12.54,25.61,1.62,40.47-5.98-1.99-10.81-3.51-14.51-4.54-3.69-1.04-8.01-1.99-12.95-2.86-4.94-.87-9.63-1.51-14.07-1.93-4.44-.42-8.4-.62-11.89-.62-9.13,0-17.76,1.31-25.9,3.92-8.13,2.61-15.13,6.64-20.98,12.08-5.85,5.44-10.23,11.93-13.14,19.49-2.91,7.55-4.36,15.52-4.36,23.91s1.66,16.17,4.98,22.85c3.32,6.68,8.59,11.77,15.81,15.25,7.22,3.49,15.27,5.23,24.15,5.23,7.39,0,15.48-1.08,24.28-3.24l1.42-27.02c-5.41-.25-8.61-.37-9.61-.37l-13.23.12.87-15.31c.08-1.66.21-4.05.37-7.16.17-3.11.25-7.37.25-12.76Z"/>
          <path class="cls-1" d="m1240.19,823.94c-1.08-17.68-2.32-31.83-3.74-42.46,9.31,4.15,17.61,7.03,24.89,8.65,7.27,1.62,13.66,2.43,19.15,2.43,7.23,0,12.99-1.06,17.28-3.17,4.28-2.12,6.42-5.25,6.42-9.4,0-1.41-.21-2.76-.62-4.05-.42-1.29-1.21-2.74-2.37-4.36-1.17-1.62-2.83-3.38-4.99-5.29l-23.46-20.42c-5.49-4.65-9.31-8.01-11.48-10.09-4.41-4.23-7.84-8.18-10.29-11.83-2.46-3.65-4.24-7.37-5.37-11.14-1.12-3.78-1.68-7.78-1.68-12.02,0-5.06.89-10.02,2.68-14.88,1.78-4.86,4.46-9.4,8.03-13.63,3.57-4.23,8.3-7.89,14.19-10.96,5.89-3.07,12.2-5.17,18.93-6.29,6.72-1.12,13.65-1.68,20.79-1.68,14.03,0,29.3,1.62,45.82,4.86.25,5.73.54,10.98.87,15.75.33,4.77,1.12,13.14,2.37,25.09-7.64-3.07-14.61-5.21-20.92-6.41-6.31-1.2-11.75-1.81-16.31-1.81-6.47,0-11.85,1.2-16.12,3.61-4.27,2.41-6.41,5.4-6.41,8.96,0,1.66.33,3.28,1,4.86s1.91,3.42,3.74,5.54c1.83,2.12,4.23,4.44,7.22,6.97,2.99,2.53,7.68,6.29,14.07,11.27l8.96,7.1c2.66,2.16,5.52,4.77,8.59,7.84,3.07,3.07,5.73,6.1,7.97,9.09,2.24,2.99,3.96,5.73,5.17,8.22,1.2,2.49,2.1,5,2.68,7.53.58,2.53.87,5.25.87,8.16,0,7.47-1.78,14.59-5.35,21.35-3.57,6.76-8.63,12.33-15.19,16.68-6.56,4.36-13.76,7.41-21.6,9.15-7.84,1.74-16.12,2.61-24.84,2.61-13.45,0-30.42-1.95-50.92-5.85Z"/>
          <path class="cls-1" d="m1379.76,826.55l3.09-25.15,7.65-87.28,3.83-57.52c15.32.17,27.37.25,36.11.25,7.25,0,18.33-.08,33.24-.25,1.07,7.14,1.99,12.55,2.73,16.25.75,3.69,2.59,10.92,5.53,21.66,2.94,10.75,5.3,20.05,7.08,27.89,1.78,7.84,4.45,21.27,8.01,40.28,3.66-13.03,6.98-24.24,9.98-33.62,2.99-9.38,6.74-20.05,11.23-32,4.49-11.95,7.34-19.78,8.54-23.47,1.21-3.69,2.85-9.36,4.93-17,12.45.17,24.65.25,36.61.25,8.13,0,19.42-.08,33.87-.25-1.58,27.97-2.61,52-3.11,72.09-1.08,39.34-1.62,66.4-1.62,81.18,0,3.07.08,8.63.25,16.68-10.96-.17-18.63-.25-23.03-.25-6.39,0-14.24.08-23.53.25.67-7.47,1.51-25.25,2.53-53.35,1.01-28.1,1.51-46.05,1.51-53.85,0-3.4-.08-8.13-.25-14.19l-16.34,50.67-23.44,70.72c-10.79-.17-18.22-.25-22.29-.25-5.15,0-13.03.08-23.66.25l-15.35-68.48-8.98-36.48c-.34-1.41-.71-3.15-1.13-5.23-.42-2.08-1.08-5.73-2-10.96l-3.14,34.49-4.14,70.72-.38,15.94c-11.45-.17-18.76-.25-21.91-.25-4.32,0-11.79.08-22.41.25Z"/>
        </g>
        <g>
          <path class="cls-5" d="m474.78,926.82c-.42,2.07-.93,4.96-1.53,8.66-.6,3.7-1,6.57-1.21,8.61-7.53,1.13-14.26,1.69-20.17,1.69s-11.01-.71-15.92-2.14-9.42-3.77-13.52-7.02c-4.1-3.26-7.03-7.08-8.79-11.48-1.76-4.4-2.64-9.33-2.64-14.79,0-6.37,1.19-12.1,3.56-17.19,2.38-5.09,5.79-9.33,10.24-12.73s9.34-5.83,14.65-7.29c5.32-1.46,10.81-2.19,16.47-2.19,5.21,0,11.65.67,19.33,2.01l.11,4.44c.07,1.94.18,4.07.32,6.39l.37,6.02c-4.12-.99-7.45-1.65-10.01-2.01-2.55-.35-4.92-.53-7.1-.53-4.75,0-9.03.95-12.83,2.85-3.8,1.9-6.79,4.66-8.98,8.29-2.18,3.63-3.27,7.64-3.27,12.04,0,4.01.92,7.45,2.75,10.32,1.83,2.87,4.3,5.09,7.42,6.65s6.96,2.35,11.54,2.35c2.5,0,5.22-.2,8.16-.61,2.94-.4,6.63-1.19,11.06-2.35Z"/>
          <path class="cls-5" d="m528.48,870.96c5.63,0,11.05.76,16.26,2.27,5.21,1.51,9.77,3.93,13.68,7.26,3.91,3.33,6.83,7.15,8.77,11.48,1.94,4.33,2.9,9.31,2.9,14.94,0,5.91-1.06,11.34-3.19,16.29-2.13,4.95-5.2,9.14-9.21,12.59-4.01,3.45-8.8,5.98-14.36,7.58-5.56,1.6-11.35,2.4-17.37,2.4s-11.65-.78-17.11-2.35c-5.46-1.57-10.2-4.1-14.23-7.6s-6.89-7.4-8.58-11.7c-1.69-4.29-2.53-9.06-2.53-14.31,0-7.71,1.79-14.48,5.36-20.3,3.57-5.83,8.87-10.38,15.89-13.65,7.02-3.27,14.93-4.91,23.74-4.91Zm-.95,15.89c-4.05,0-7.71.99-10.98,2.98-3.27,1.99-5.79,4.75-7.55,8.29-1.76,3.54-2.64,7.33-2.64,11.38,0,3.73.8,7.15,2.4,10.24,1.6,3.1,4.04,5.52,7.31,7.26,3.27,1.74,6.74,2.61,10.4,2.61,3.91,0,7.49-.98,10.75-2.93,3.26-1.95,5.74-4.7,7.45-8.24,1.71-3.54,2.56-7.24,2.56-11.12s-.79-7.24-2.38-10.43c-1.58-3.19-3.91-5.66-6.97-7.42-3.06-1.76-6.51-2.64-10.35-2.64Z"/>
          <path class="cls-5" d="m578.6,944.41l1.06-11.09,2.06-37.6.58-15.15v-8.24c5.47.07,10.29.11,14.49.11,3,0,7.21-.04,12.64-.11l22.54,40.99,3.11,6.02c.4-5.92.8-14.21,1.22-24.88.41-10.67.62-18.05.62-22.13,4.33.07,7.79.11,10.39.11,1.19,0,4.64-.04,10.34-.11l-1.27,15.74-2.38,43.72-.32,12.62c-4.58-.07-8.86-.11-12.84-.11-3.31,0-7.89.04-13.74.11-1.83-3.45-3.18-5.95-4.06-7.5l-8.86-15.05c-2.92-4.93-5.61-9.65-8.07-14.16-1.62-2.85-3.29-5.99-5.01-9.4l-1.14,25.04-.54,21.08c-4.36-.07-7.68-.11-9.97-.11-1.93,0-5.56.04-10.86.11Z"/>
          <path class="cls-5" d="m666.67,943.3c-.46-7.5-.99-13.5-1.58-18.01,3.95,1.76,7.47,2.98,10.55,3.67,3.08.69,5.79,1.03,8.12,1.03,3.07,0,5.51-.45,7.33-1.35,1.82-.9,2.72-2.23,2.72-3.99,0-.6-.09-1.17-.26-1.72-.18-.55-.51-1.16-1.01-1.85-.5-.69-1.2-1.43-2.12-2.24l-9.95-8.66c-2.33-1.97-3.95-3.4-4.87-4.28-1.87-1.8-3.32-3.47-4.37-5.02-1.04-1.55-1.8-3.12-2.28-4.73-.48-1.6-.71-3.3-.71-5.1,0-2.15.38-4.25,1.14-6.31.76-2.06,1.89-3.99,3.41-5.78,1.51-1.8,3.52-3.34,6.02-4.65s5.17-2.19,8.03-2.67c2.85-.48,5.79-.71,8.82-.71,5.95,0,12.43.69,19.43,2.06.11,2.43.23,4.66.37,6.68.14,2.02.48,5.57,1,10.64-3.24-1.3-6.2-2.21-8.87-2.72-2.68-.51-4.98-.77-6.92-.77-2.75,0-5.03.51-6.84,1.53-1.81,1.02-2.72,2.29-2.72,3.8,0,.7.14,1.39.42,2.06.28.67.81,1.45,1.58,2.35.77.9,1.8,1.88,3.06,2.96,1.27,1.07,3.26,2.67,5.97,4.78l3.8,3.01c1.13.92,2.34,2.02,3.64,3.33,1.3,1.3,2.43,2.59,3.38,3.85.95,1.27,1.68,2.43,2.19,3.49s.89,2.12,1.14,3.19c.25,1.07.37,2.23.37,3.46,0,3.17-.76,6.19-2.27,9.06-1.51,2.87-3.66,5.23-6.44,7.08-2.78,1.85-5.83,3.14-9.16,3.88-3.33.74-6.84,1.11-10.53,1.11-5.7,0-12.9-.83-21.6-2.48Z"/>
          <path class="cls-5" d="m743.13,944.41c1.75-17.11,2.8-35.94,3.15-56.5l-22.47.58.26-5.86c.14-3.13.25-6.57.32-10.3,9.99.07,21.64.11,34.95.11l13.04-.05h12.67l6.86-.05-.32,5.17c-.14,2.77-.24,5.07-.29,6.88-.05,1.81-.08,3.18-.08,4.11-7.53-.39-13.74-.58-18.62-.58h-3.69c-.53,6.22-.94,11.96-1.22,17.23-.39,7.56-.69,14.89-.9,22-.21,7.12-.32,12.87-.32,17.26-5.77-.07-9.5-.11-11.19-.11-1.51,0-5.56.04-12.14.11Z"/>
          <path class="cls-5" d="m795.62,944.41c.67-6.2,1.2-11.78,1.59-16.74.39-4.96.72-10.72,1.01-17.27.28-6.55.5-13.46.64-20.73.14-7.27.21-13.05.21-17.35,4.4.11,7.96.16,10.67.16s6.25-.08,10.29-.24c4.05-.16,7.99-.24,11.83-.24,4.51,0,8.52.18,12.04.53,2.64.25,5.04.76,7.21,1.53,2.16.77,3.98,1.72,5.46,2.83,1.48,1.11,2.71,2.35,3.7,3.72.99,1.37,1.75,2.98,2.3,4.83s.82,3.83.82,5.94c0,2.36-.3,4.57-.9,6.63-.6,2.06-1.54,4-2.83,5.81-1.28,1.81-2.9,3.38-4.86,4.7-1.95,1.32-4.69,2.67-8.21,4.04l2.75,6.71c.77,1.87,1.6,3.77,2.48,5.7l7.08,15.47c.32.67.88,1.99,1.69,3.96-5.8-.07-9.71-.11-11.71-.11-2.53,0-6.68.04-12.45.11-.57-1.83-1.59-5.23-3.07-10.19-.6-2.08-1.11-3.68-1.53-4.81-.85-2.5-2.1-6-3.75-10.51l-5.45-14.94c1.9.35,3.77.53,5.6.53,2.57,0,4.9-.39,7-1.16s3.68-1.97,4.75-3.59c1.07-1.62,1.61-3.33,1.61-5.12,0-1.51-.4-2.84-1.21-3.99-.81-1.14-2.09-2-3.83-2.56s-4.43-.84-8.05-.84c-1.23,0-2.51.03-3.83.08s-2.86.1-4.62.13c-.45,7.22-.85,16.02-1.2,26.4-.35,10.38-.57,20.58-.68,30.57-5.89-.07-9.71-.11-11.47-.11-2.04,0-5.73.04-11.05.11Z"/>
          <path class="cls-5" d="m874.68,872.33c5.49.07,9.36.11,11.61.11,2.81,0,6.56-.04,11.24-.11l-1.57,22.44c-.31,4.22-.55,8.18-.71,11.88-.16,3.7-.24,6.25-.24,7.66,0,2.68.19,4.91.58,6.71.39,1.8,1.09,3.32,2.11,4.57,1.02,1.25,2.44,2.19,4.25,2.83s3.7.95,5.67.95c1.69,0,3.27-.23,4.75-.69,1.16-.38,2.2-.9,3.11-1.57.81-.63,1.51-1.36,2.11-2.2.74-1.01,1.39-2.26,1.95-3.77.56-1.42.99-3.27,1.27-5.53.32-2.3.74-7.54,1.27-15.72.46-6.96.81-13.33,1.06-19.12.21-5.62.4-8.42.58-8.42h23.28l-2.57,37.49c-.03.7-.05,1.28-.05,1.74-.14,7.32-.59,12.49-1.35,15.5-.76,3.01-2.02,5.62-3.78,7.84-1.76,2.22-4.33,4.22-7.71,5.99-3.38,1.78-7.22,3.04-11.52,3.78-4.29.74-8.64,1.11-13.04,1.11-3.94,0-7.75-.28-11.41-.84-3.38-.56-6.43-1.38-9.14-2.46-2.71-1.07-5.07-2.33-7.08-3.78-1.83-1.34-3.24-2.7-4.23-4.09s-1.76-3.05-2.32-4.99c-.63-2.18-.95-4.52-.95-7.02,0-.84.04-2.12.11-3.83.07-1.71.23-4.16.48-7.37l.69-8.45c.18-2.22.37-5.47.58-9.77l.95-20.86Z"/>
          <path class="cls-5" d="m1017.98,926.82c-.42,2.07-.93,4.96-1.53,8.66-.6,3.7-1,6.57-1.21,8.61-7.53,1.13-14.26,1.69-20.17,1.69s-11.01-.71-15.92-2.14c-4.91-1.43-9.42-3.77-13.52-7.02-4.1-3.26-7.03-7.08-8.79-11.48-1.76-4.4-2.64-9.33-2.64-14.79,0-6.37,1.19-12.1,3.56-17.19,2.38-5.09,5.79-9.33,10.24-12.73,4.45-3.4,9.34-5.83,14.65-7.29,5.32-1.46,10.81-2.19,16.47-2.19,5.21,0,11.65.67,19.33,2.01l.11,4.44c.07,1.94.18,4.07.32,6.39l.37,6.02c-4.12-.99-7.45-1.65-10.01-2.01s-4.92-.53-7.1-.53c-4.75,0-9.03.95-12.83,2.85-3.8,1.9-6.79,4.66-8.98,8.29-2.18,3.63-3.27,7.64-3.27,12.04,0,4.01.92,7.45,2.75,10.32,1.83,2.87,4.3,5.09,7.42,6.65,3.12,1.57,6.96,2.35,11.54,2.35,2.5,0,5.22-.2,8.16-.61,2.94-.4,6.63-1.19,11.06-2.35Z"/>
          <path class="cls-5" d="m1044.12,944.41c1.75-17.11,2.8-35.94,3.15-56.5l-22.47.58.26-5.86c.14-3.13.25-6.57.32-10.3,9.99.07,21.64.11,34.95.11l13.04-.05h12.67l6.86-.05-.32,5.17c-.14,2.77-.24,5.07-.29,6.88-.05,1.81-.08,3.18-.08,4.11-7.53-.39-13.74-.58-18.62-.58h-3.69c-.53,6.22-.94,11.96-1.22,17.23-.39,7.56-.69,14.89-.9,22-.21,7.12-.32,12.87-.32,17.26-5.77-.07-9.5-.11-11.19-.11-1.51,0-5.56.04-12.14.11Z"/>
          <path class="cls-5" d="m1096.92,944.41c2.03-28.27,3.04-50.02,3.04-65.27l-.05-6.81c6.16.07,10.29.11,12.37.11.95,0,4.74-.04,11.36-.11-.64,7.92-1.15,15.42-1.54,22.49-.5,9.86-.85,19.07-1.06,27.64-.21,8.57-.32,15.89-.32,21.94l-10.82-.11c-2.11,0-6.44.04-12.98.11Z"/>
          <path class="cls-5" d="m1177.29,870.96c5.63,0,11.05.76,16.26,2.27,5.21,1.51,9.77,3.93,13.68,7.26,3.91,3.33,6.83,7.15,8.77,11.48,1.94,4.33,2.9,9.31,2.9,14.94,0,5.91-1.06,11.34-3.19,16.29s-5.2,9.14-9.21,12.59c-4.01,3.45-8.8,5.98-14.36,7.58-5.56,1.6-11.35,2.4-17.37,2.4s-11.65-.78-17.11-2.35c-5.46-1.57-10.2-4.1-14.23-7.6-4.03-3.5-6.89-7.4-8.58-11.7-1.69-4.29-2.53-9.06-2.53-14.31,0-7.71,1.79-14.48,5.36-20.3,3.57-5.83,8.87-10.38,15.89-13.65,7.02-3.27,14.93-4.91,23.74-4.91Zm-.95,15.89c-4.05,0-7.71.99-10.98,2.98-3.27,1.99-5.79,4.75-7.55,8.29s-2.64,7.33-2.64,11.38c0,3.73.8,7.15,2.4,10.24,1.6,3.1,4.04,5.52,7.31,7.26,3.27,1.74,6.74,2.61,10.4,2.61,3.91,0,7.49-.98,10.75-2.93,3.26-1.95,5.74-4.7,7.45-8.24,1.71-3.54,2.56-7.24,2.56-11.12s-.79-7.24-2.38-10.43-3.91-5.66-6.97-7.42c-3.06-1.76-6.51-2.64-10.35-2.64Z"/>
          <path class="cls-5" d="m1227.4,944.41l1.06-11.09,2.06-37.6.58-15.15v-8.24c5.47.07,10.29.11,14.49.11,3,0,7.21-.04,12.64-.11l22.54,40.99,3.11,6.02c.4-5.92.8-14.21,1.22-24.88.41-10.67.62-18.05.62-22.13,4.33.07,7.79.11,10.39.11,1.19,0,4.64-.04,10.34-.11l-1.27,15.74-2.38,43.72-.32,12.62c-4.58-.07-8.86-.11-12.84-.11-3.31,0-7.89.04-13.74.11-1.83-3.45-3.18-5.95-4.06-7.5l-8.86-15.05c-2.92-4.93-5.61-9.65-8.07-14.16-1.62-2.85-3.29-5.99-5.01-9.4l-1.14,25.04-.54,21.08c-4.36-.07-7.68-.11-9.97-.11-1.93,0-5.56.04-10.86.11Z"/>
        </g>
      </g>
    </g>
  </g>
</svg>